<svg width="25" height="25" viewBox="0 0 25 25" fill="none" xmlns="http://www.w3.org/2000/svg">
<path d="M11.5 4.5H4.5C3.96957 4.5 3.46086 4.71071 3.08579 5.08579C2.71071 5.46086 2.5 5.96957 2.5 6.5V20.5C2.5 21.0304 2.71071 21.5391 3.08579 21.9142C3.46086 22.2893 3.96957 22.5 4.5 22.5H18.5C19.0304 22.5 19.5391 22.2893 19.9142 21.9142C20.2893 21.5391 20.5 21.0304 20.5 20.5V13.5" stroke="#624DE3" stroke-width="2" stroke-linecap="round" stroke-linejoin="round"/>
<path d="M19 2.99998C19.3978 2.60216 19.9374 2.37866 20.5 2.37866C21.0626 2.37866 21.6022 2.60216 22 2.99998C22.3978 3.39781 22.6213 3.93737 22.6213 4.49998C22.6213 5.06259 22.3978 5.60216 22 5.99998L12.5 15.5L8.5 16.5L9.5 12.5L19 2.99998Z" stroke="#624DE3" stroke-width="2" stroke-linecap="round" stroke-linejoin="round"/>
</svg>
