<svg width="107" height="32" viewBox="0 0 107 32" fill="none" xmlns="http://www.w3.org/2000/svg">
<rect width="107" height="32" rx="8" fill="#624DE3"/>
<path d="M20.5 10.75C20.5 10.5511 20.421 10.3603 20.2803 10.2197C20.1397 10.079 19.9489 10 19.75 10C19.5511 10 19.3603 10.079 19.2197 10.2197C19.079 10.3603 19 10.5511 19 10.75V15H14.75C14.5511 15 14.3603 15.079 14.2197 15.2197C14.079 15.3603 14 15.5511 14 15.75C14 15.9489 14.079 16.1397 14.2197 16.2803C14.3603 16.421 14.5511 16.5 14.75 16.5H19V20.75C19 20.9489 19.079 21.1397 19.2197 21.2803C19.3603 21.421 19.5511 21.5 19.75 21.5C19.9489 21.5 20.1397 21.421 20.2803 21.2803C20.421 21.1397 20.5 20.9489 20.5 20.75V16.5H24.75C24.9489 16.5 25.1397 16.421 25.2803 16.2803C25.421 16.1397 25.5 15.9489 25.5 15.75C25.5 15.5511 25.421 15.3603 25.2803 15.2197C25.1397 15.079 24.9489 15 24.75 15H20.5V10.75Z" fill="white"/>
<path d="M35.892 20.5L39.636 12.1H41.556L45.312 20.5H43.272L40.2 13.084H40.968L37.884 20.5H35.892ZM37.764 18.7L38.28 17.224H42.6L43.128 18.7H37.764ZM48.7649 20.596C48.1569 20.596 47.6089 20.46 47.1209 20.188C46.6329 19.908 46.2449 19.52 45.9569 19.024C45.6769 18.528 45.5369 17.944 45.5369 17.272C45.5369 16.592 45.6769 16.004 45.9569 15.508C46.2449 15.012 46.6329 14.628 47.1209 14.356C47.6089 14.084 48.1569 13.948 48.7649 13.948C49.3089 13.948 49.7849 14.068 50.1929 14.308C50.6009 14.548 50.9169 14.912 51.1409 15.4C51.3649 15.888 51.4769 16.512 51.4769 17.272C51.4769 18.024 51.3689 18.648 51.1529 19.144C50.9369 19.632 50.6249 19.996 50.2169 20.236C49.8169 20.476 49.3329 20.596 48.7649 20.596ZM49.0889 19.06C49.3929 19.06 49.6689 18.988 49.9169 18.844C50.1649 18.7 50.3609 18.496 50.5049 18.232C50.6569 17.96 50.7329 17.64 50.7329 17.272C50.7329 16.896 50.6569 16.576 50.5049 16.312C50.3609 16.048 50.1649 15.844 49.9169 15.7C49.6689 15.556 49.3929 15.484 49.0889 15.484C48.7769 15.484 48.4969 15.556 48.2489 15.7C48.0009 15.844 47.8009 16.048 47.6489 16.312C47.5049 16.576 47.4329 16.896 47.4329 17.272C47.4329 17.64 47.5049 17.96 47.6489 18.232C47.8009 18.496 48.0009 18.7 48.2489 18.844C48.4969 18.988 48.7769 19.06 49.0889 19.06ZM50.7809 20.5V19.18L50.8169 17.26L50.6969 15.352V11.596H52.5689V20.5H50.7809ZM57.0735 20.596C56.4655 20.596 55.9175 20.46 55.4295 20.188C54.9415 19.908 54.5535 19.52 54.2655 19.024C53.9855 18.528 53.8455 17.944 53.8455 17.272C53.8455 16.592 53.9855 16.004 54.2655 15.508C54.5535 15.012 54.9415 14.628 55.4295 14.356C55.9175 14.084 56.4655 13.948 57.0735 13.948C57.6175 13.948 58.0935 14.068 58.5015 14.308C58.9095 14.548 59.2255 14.912 59.4495 15.4C59.6735 15.888 59.7855 16.512 59.7855 17.272C59.7855 18.024 59.6775 18.648 59.4615 19.144C59.2455 19.632 58.9335 19.996 58.5255 20.236C58.1255 20.476 57.6415 20.596 57.0735 20.596ZM57.3975 19.06C57.7015 19.06 57.9775 18.988 58.2255 18.844C58.4735 18.7 58.6695 18.496 58.8135 18.232C58.9655 17.96 59.0415 17.64 59.0415 17.272C59.0415 16.896 58.9655 16.576 58.8135 16.312C58.6695 16.048 58.4735 15.844 58.2255 15.7C57.9775 15.556 57.7015 15.484 57.3975 15.484C57.0855 15.484 56.8055 15.556 56.5575 15.7C56.3095 15.844 56.1095 16.048 55.9575 16.312C55.8135 16.576 55.7415 16.896 55.7415 17.272C55.7415 17.64 55.8135 17.96 55.9575 18.232C56.1095 18.496 56.3095 18.7 56.5575 18.844C56.8055 18.988 57.0855 19.06 57.3975 19.06ZM59.0895 20.5V19.18L59.1255 17.26L59.0055 15.352V11.596H60.8775V20.5H59.0895ZM68.9005 20.644C68.2285 20.644 67.5845 20.556 66.9685 20.38C66.3525 20.196 65.8565 19.96 65.4805 19.672L66.1405 18.208C66.5005 18.464 66.9245 18.676 67.4125 18.844C67.9085 19.004 68.4085 19.084 68.9125 19.084C69.2965 19.084 69.6045 19.048 69.8365 18.976C70.0765 18.896 70.2525 18.788 70.3645 18.652C70.4765 18.516 70.5325 18.36 70.5325 18.184C70.5325 17.96 70.4445 17.784 70.2685 17.656C70.0925 17.52 69.8605 17.412 69.5725 17.332C69.2845 17.244 68.9645 17.164 68.6125 17.092C68.2685 17.012 67.9205 16.916 67.5685 16.804C67.2245 16.692 66.9085 16.548 66.6205 16.372C66.3325 16.196 66.0965 15.964 65.9125 15.676C65.7365 15.388 65.6485 15.02 65.6485 14.572C65.6485 14.092 65.7765 13.656 66.0325 13.264C66.2965 12.864 66.6885 12.548 67.2085 12.316C67.7365 12.076 68.3965 11.956 69.1885 11.956C69.7165 11.956 70.2365 12.02 70.7485 12.148C71.2605 12.268 71.7125 12.452 72.1045 12.7L71.5045 14.176C71.1125 13.952 70.7205 13.788 70.3285 13.684C69.9365 13.572 69.5525 13.516 69.1765 13.516C68.8005 13.516 68.4925 13.56 68.2525 13.648C68.0125 13.736 67.8405 13.852 67.7365 13.996C67.6325 14.132 67.5805 14.292 67.5805 14.476C67.5805 14.692 67.6685 14.868 67.8445 15.004C68.0205 15.132 68.2525 15.236 68.5405 15.316C68.8285 15.396 69.1445 15.476 69.4885 15.556C69.8405 15.636 70.1885 15.728 70.5325 15.832C70.8845 15.936 71.2045 16.076 71.4925 16.252C71.7805 16.428 72.0125 16.66 72.1885 16.948C72.3725 17.236 72.4645 17.6 72.4645 18.04C72.4645 18.512 72.3325 18.944 72.0685 19.336C71.8045 19.728 71.4085 20.044 70.8805 20.284C70.3605 20.524 69.7005 20.644 68.9005 20.644ZM76.3009 20.596C75.5409 20.596 74.9489 20.404 74.5249 20.02C74.1009 19.628 73.8889 19.048 73.8889 18.28V12.616H75.7609V18.256C75.7609 18.528 75.8329 18.74 75.9769 18.892C76.1209 19.036 76.3169 19.108 76.5649 19.108C76.8609 19.108 77.1129 19.028 77.3209 18.868L77.8249 20.188C77.6329 20.324 77.4009 20.428 77.1289 20.5C76.8649 20.564 76.5889 20.596 76.3009 20.596ZM72.8929 15.628V14.188H77.3689V15.628H72.8929ZM82.8357 20.5V19.24L82.7157 18.964V16.708C82.7157 16.308 82.5917 15.996 82.3437 15.772C82.1037 15.548 81.7317 15.436 81.2277 15.436C80.8837 15.436 80.5437 15.492 80.2077 15.604C79.8797 15.708 79.5997 15.852 79.3677 16.036L78.6957 14.728C79.0477 14.48 79.4717 14.288 79.9677 14.152C80.4637 14.016 80.9677 13.948 81.4797 13.948C82.4637 13.948 83.2277 14.18 83.7717 14.644C84.3157 15.108 84.5877 15.832 84.5877 16.816V20.5H82.8357ZM80.8677 20.596C80.3637 20.596 79.9317 20.512 79.5717 20.344C79.2117 20.168 78.9357 19.932 78.7437 19.636C78.5517 19.34 78.4557 19.008 78.4557 18.64C78.4557 18.256 78.5477 17.92 78.7317 17.632C78.9237 17.344 79.2237 17.12 79.6317 16.96C80.0397 16.792 80.5717 16.708 81.2277 16.708H82.9437V17.8H81.4317C80.9917 17.8 80.6877 17.872 80.5197 18.016C80.3597 18.16 80.2797 18.34 80.2797 18.556C80.2797 18.796 80.3717 18.988 80.5557 19.132C80.7477 19.268 81.0077 19.336 81.3357 19.336C81.6477 19.336 81.9277 19.264 82.1757 19.12C82.4237 18.968 82.6037 18.748 82.7157 18.46L83.0037 19.324C82.8677 19.74 82.6197 20.056 82.2597 20.272C81.8997 20.488 81.4357 20.596 80.8677 20.596ZM86.51 20.5V13.9C86.51 13.172 86.726 12.592 87.158 12.16C87.59 11.72 88.206 11.5 89.006 11.5C89.278 11.5 89.538 11.528 89.786 11.584C90.042 11.64 90.258 11.728 90.434 11.848L89.942 13.204C89.838 13.132 89.722 13.076 89.594 13.036C89.466 12.996 89.33 12.976 89.186 12.976C88.914 12.976 88.702 13.056 88.55 13.216C88.406 13.368 88.334 13.6 88.334 13.912V14.512L88.382 15.316V20.5H86.51ZM85.514 15.628V14.188H89.99V15.628H85.514ZM91.2443 20.5V13.9C91.2443 13.172 91.4603 12.592 91.8923 12.16C92.3243 11.72 92.9403 11.5 93.7403 11.5C94.0123 11.5 94.2723 11.528 94.5203 11.584C94.7763 11.64 94.9923 11.728 95.1683 11.848L94.6763 13.204C94.5723 13.132 94.4563 13.076 94.3283 13.036C94.2003 12.996 94.0643 12.976 93.9203 12.976C93.6483 12.976 93.4363 13.056 93.2843 13.216C93.1403 13.368 93.0683 13.6 93.0683 13.912V14.512L93.1163 15.316V20.5H91.2443ZM90.2483 15.628V14.188H94.7243V15.628H90.2483Z" fill="white"/>
</svg>
