<svg width="17" height="23" viewBox="0 0 17 23" fill="none" xmlns="http://www.w3.org/2000/svg">
<path d="M4.5 5.5V3.5C4.5 2.96957 4.71071 2.46086 5.08579 2.08579C5.46086 1.71071 5.96957 1.5 6.5 1.5H10.5C11.0304 1.5 11.5391 1.71071 11.9142 2.08579C12.2893 2.46086 12.5 2.96957 12.5 3.5V5.5M15.5 5.5V19.5C15.5 20.0304 15.2893 20.5391 14.9142 20.9142C14.5391 21.2893 14.0304 21.5 13.5 21.5H3.5C2.96957 21.5 2.46086 21.2893 2.08579 20.9142C1.71071 20.5391 1.5 20.0304 1.5 19.5V5.5H15.5Z" stroke="#A30D11" stroke-width="2" stroke-linecap="round" stroke-linejoin="round"/>
</svg>
